<svg width="44" height="44" viewBox="0 0 44 44" fill="none" xmlns="http://www.w3.org/2000/svg">
<g filter="url(#filter0_d_4_29)">
<path d="M14.5714 34C13.8643 34 13.2589 33.7482 12.7554 33.2446C12.2518 32.7411 12 32.1357 12 31.4286V12.5714C12 11.8643 12.2518 11.2589 12.7554 10.7554C13.2589 10.2518 13.8643 10 14.5714 10C15.2785 10 15.8839 10.2518 16.3875 10.7554C16.891 11.2589 17.1428 11.8643 17.1428 12.5714V31.4286C17.1428 32.1357 16.891 32.7411 16.3875 33.2446C15.8839 33.7482 15.2785 34 14.5714 34Z" fill="black"/>
<path d="M27.1125 33.2446C27.6161 33.7482 28.2215 34 28.9286 34C29.6357 34 30.2411 33.7482 30.7446 33.2446C31.2482 32.7411 31.5 32.1357 31.5 31.4286V12.5714C31.5 11.8643 31.2482 11.2589 30.7446 10.7554C30.2411 10.2518 29.6357 10 28.9286 10C28.2215 10 27.6161 10.2518 27.1125 10.7554C26.609 11.2589 26.3572 11.8643 26.3572 12.5714V31.4286C26.3572 32.1357 26.609 32.7411 27.1125 33.2446Z" fill="black"/>
</g>
<defs>
<filter id="filter0_d_4_29" x="2" y="0" width="39.5" height="44" filterUnits="userSpaceOnUse" color-interpolation-filters="sRGB">
<feFlood flood-opacity="0" result="BackgroundImageFix"/>
<feColorMatrix in="SourceAlpha" type="matrix" values="0 0 0 0 0 0 0 0 0 0 0 0 0 0 0 0 0 0 127 0" result="hardAlpha"/>
<feOffset/>
<feGaussianBlur stdDeviation="5"/>
<feComposite in2="hardAlpha" operator="out"/>
<feColorMatrix type="matrix" values="0 0 0 0 1 0 0 0 0 1 0 0 0 0 1 0 0 0 1 0"/>
<feBlend mode="normal" in2="BackgroundImageFix" result="effect1_dropShadow_4_29"/>
<feBlend mode="normal" in="SourceGraphic" in2="effect1_dropShadow_4_29" result="shape"/>
</filter>
</defs>
</svg>
