<svg width="97" height="97" viewBox="0 0 97 97" fill="none" xmlns="http://www.w3.org/2000/svg">
<g clip-path="url(#clip0_1_6)">
<g filter="url(#filter0_d_1_6)">
<path d="M48.1969 84.875C38.6316 84.875 30.4304 81.6585 23.5932 75.2255C16.7561 68.7925 12.967 60.8608 12.226 51.4302C12.1587 50.6219 12.4113 49.9146 12.9839 49.3083C13.5564 48.7021 14.2806 48.399 15.1563 48.399C15.9646 48.399 16.655 48.6852 17.2276 49.2578C17.8002 49.8304 18.1538 50.5545 18.2885 51.4302C19.0295 59.1767 22.2292 65.6771 27.8875 70.9313C33.5458 76.1854 40.3156 78.8125 48.1969 78.8125C56.7517 78.8125 63.9931 75.8149 69.9208 69.8198C75.8486 63.8247 78.8125 56.5497 78.8125 47.9948C78.8125 39.642 75.8149 32.5859 69.8198 26.8266C63.8247 21.0672 56.617 18.1875 48.1969 18.1875C43.6163 18.1875 39.3221 19.2316 35.3141 21.3198C31.3061 23.408 27.8201 26.1698 24.8563 29.6052H32.4344C33.3101 29.6052 34.0342 29.8915 34.6068 30.4641C35.1793 31.0366 35.4656 31.7608 35.4656 32.6365C35.4656 33.5122 35.1793 34.2363 34.6068 34.8089C34.0342 35.3814 33.3101 35.6677 32.4344 35.6677H17.3792C16.5035 35.6677 15.7793 35.3814 15.2068 34.8089C14.6342 34.2363 14.3479 33.5122 14.3479 32.6365V17.6823C14.3479 16.8066 14.6342 16.0825 15.2068 15.5099C15.7793 14.9373 16.5035 14.651 17.3792 14.651C18.2549 14.651 18.979 14.9373 19.5516 15.5099C20.1241 16.0825 20.4104 16.8066 20.4104 17.6823V25.3615C23.9132 21.2524 28.0727 18.0191 32.8891 15.6615C37.7054 13.3038 42.808 12.125 48.1969 12.125C53.249 12.125 57.9979 13.0681 62.4438 14.9542C66.8896 16.8403 70.7797 19.4168 74.1141 22.6839C77.4484 25.9509 80.0755 29.7736 81.9953 34.1521C83.9151 38.5306 84.875 43.2458 84.875 48.2979C84.875 53.35 83.9151 58.099 81.9953 62.5448C80.0755 66.9906 77.4484 70.8639 74.1141 74.1646C70.7797 77.4653 66.8896 80.0755 62.4438 81.9953C57.9979 83.9151 53.249 84.875 48.1969 84.875ZM51.6323 47.0854L63.2521 58.5031C63.8583 59.1094 64.1615 59.8335 64.1615 60.6755C64.1615 61.5175 63.8583 62.2417 63.2521 62.8479C62.6458 63.4542 61.9385 63.7573 61.1302 63.7573C60.3219 63.7573 59.6146 63.4542 59.0083 62.8479L46.4792 50.5208C46.1424 50.184 45.9066 49.8304 45.7719 49.4599C45.6372 49.0894 45.5698 48.7021 45.5698 48.2979V31.0198C45.5698 30.1441 45.8561 29.42 46.4286 28.8474C47.0012 28.2748 47.7253 27.9885 48.601 27.9885C49.4767 27.9885 50.2009 28.2748 50.7734 28.8474C51.346 29.42 51.6323 30.1441 51.6323 31.0198V47.0854Z" fill="white"/>
</g>
</g>
<defs>
<filter id="filter0_d_1_6" x="-2.78459" y="-2.875" width="102.66" height="102.75" filterUnits="userSpaceOnUse" color-interpolation-filters="sRGB">
<feFlood flood-opacity="0" result="BackgroundImageFix"/>
<feColorMatrix in="SourceAlpha" type="matrix" values="0 0 0 0 0 0 0 0 0 0 0 0 0 0 0 0 0 0 127 0" result="hardAlpha"/>
<feOffset/>
<feGaussianBlur stdDeviation="7.5"/>
<feComposite in2="hardAlpha" operator="out"/>
<feColorMatrix type="matrix" values="0 0 0 0 0 0 0 0 0 0 0 0 0 0 0 0 0 0 0.71 0"/>
<feBlend mode="normal" in2="BackgroundImageFix" result="effect1_dropShadow_1_6"/>
<feBlend mode="normal" in="SourceGraphic" in2="effect1_dropShadow_1_6" result="shape"/>
</filter>
<clipPath id="clip0_1_6">
<rect width="97" height="97" fill="white"/>
</clipPath>
</defs>
</svg>
