<svg width="97" height="97" viewBox="0 0 97 97" fill="none" xmlns="http://www.w3.org/2000/svg">
<g filter="url(#filter0_d_1_4)">
<path d="M23.2396 76.7917C22.3807 76.7917 21.6608 76.5012 21.0798 75.9202C20.4988 75.3392 20.2083 74.6193 20.2083 73.7604V60.3219C20.2083 59.463 20.5005 58.7431 21.0849 58.1621C21.6693 57.5811 22.3934 57.2906 23.2573 57.2906C24.1212 57.2906 24.8394 57.5811 25.412 58.1621C25.9846 58.7431 26.2708 59.463 26.2708 60.3219V70.7292H36.6781C37.537 70.7292 38.2569 71.0214 38.8379 71.6057C39.4189 72.1901 39.7094 72.9143 39.7094 73.7781C39.7094 74.642 39.4189 75.3603 38.8379 75.9328C38.2569 76.5054 37.537 76.7917 36.6781 76.7917H23.2396ZM23.2219 39.7094C22.358 39.7094 21.6398 39.4189 21.0672 38.8379C20.4946 38.2569 20.2083 37.537 20.2083 36.6781V23.2396C20.2083 22.3807 20.4988 21.6608 21.0798 21.0798C21.6608 20.4988 22.3807 20.2083 23.2396 20.2083H36.6781C37.537 20.2083 38.2569 20.5005 38.8379 21.0849C39.4189 21.6693 39.7094 22.3934 39.7094 23.2573C39.7094 24.1212 39.4189 24.8394 38.8379 25.412C38.2569 25.9846 37.537 26.2708 36.6781 26.2708H26.2708V36.6781C26.2708 37.537 25.9787 38.2569 25.3943 38.8379C24.8099 39.4189 24.0857 39.7094 23.2219 39.7094ZM60.3219 76.7917C59.463 76.7917 58.7431 76.4995 58.1621 75.9151C57.5811 75.3307 57.2906 74.6066 57.2906 73.7427C57.2906 72.8788 57.5811 72.1606 58.1621 71.588C58.7431 71.0155 59.463 70.7292 60.3219 70.7292H70.7292V60.3219C70.7292 59.463 71.0213 58.7431 71.6057 58.1621C72.1901 57.5811 72.9143 57.2906 73.7781 57.2906C74.642 57.2906 75.3602 57.5811 75.9328 58.1621C76.5054 58.7431 76.7917 59.463 76.7917 60.3219V73.7604C76.7917 74.6193 76.5012 75.3392 75.9202 75.9202C75.3392 76.5012 74.6193 76.7917 73.7604 76.7917H60.3219ZM73.7427 39.7094C72.8788 39.7094 72.1606 39.4189 71.588 38.8379C71.0155 38.2569 70.7292 37.537 70.7292 36.6781V26.2708H60.3219C59.463 26.2708 58.7431 25.9787 58.1621 25.3943C57.5811 24.8099 57.2906 24.0858 57.2906 23.2219C57.2906 22.358 57.5811 21.6398 58.1621 21.0672C58.7431 20.4946 59.463 20.2083 60.3219 20.2083H73.7604C74.6193 20.2083 75.3392 20.4988 75.9202 21.0798C76.5012 21.6608 76.7917 22.3807 76.7917 23.2396V36.6781C76.7917 37.537 76.4995 38.2569 75.9151 38.8379C75.3307 39.4189 74.6066 39.7094 73.7427 39.7094Z" fill="white"/>
</g>
<defs>
<filter id="filter0_d_1_4" x="5.20834" y="5.20834" width="86.5833" height="86.5833" filterUnits="userSpaceOnUse" color-interpolation-filters="sRGB">
<feFlood flood-opacity="0" result="BackgroundImageFix"/>
<feColorMatrix in="SourceAlpha" type="matrix" values="0 0 0 0 0 0 0 0 0 0 0 0 0 0 0 0 0 0 127 0" result="hardAlpha"/>
<feOffset/>
<feGaussianBlur stdDeviation="7.5"/>
<feComposite in2="hardAlpha" operator="out"/>
<feColorMatrix type="matrix" values="0 0 0 0 0 0 0 0 0 0 0 0 0 0 0 0 0 0 0.71 0"/>
<feBlend mode="normal" in2="BackgroundImageFix" result="effect1_dropShadow_1_4"/>
<feBlend mode="normal" in="SourceGraphic" in2="effect1_dropShadow_1_4" result="shape"/>
</filter>
</defs>
</svg>
