<svg width="97" height="98" viewBox="0 0 97 98" fill="none" xmlns="http://www.w3.org/2000/svg">
<g clip-path="url(#clip0_1_18)">
<g filter="url(#filter0_d_1_18)">
<path d="M16.874 85.75C15.4594 86.0903 14.23 85.733 13.1859 84.6781C12.1418 83.6233 11.7882 82.3813 12.125 80.9521L15.7625 63.7L33.95 82.075L16.874 85.75ZM39.2042 78.6042L19.1979 58.3917L63.9594 13.1688C65.1045 12.0118 66.5191 11.4333 68.2031 11.4333C69.8872 11.4333 71.3017 12.0118 72.4469 13.1688L83.9656 24.8063C85.1108 25.9632 85.6833 27.3924 85.6833 29.0938C85.6833 30.7951 85.1108 32.2243 83.9656 33.3813L39.2042 78.6042Z" fill="white"/>
</g>
</g>
<defs>
<filter id="filter0_d_1_18" x="-2.99822" y="-3.56667" width="103.682" height="104.441" filterUnits="userSpaceOnUse" color-interpolation-filters="sRGB">
<feFlood flood-opacity="0" result="BackgroundImageFix"/>
<feColorMatrix in="SourceAlpha" type="matrix" values="0 0 0 0 0 0 0 0 0 0 0 0 0 0 0 0 0 0 127 0" result="hardAlpha"/>
<feOffset/>
<feGaussianBlur stdDeviation="7.5"/>
<feComposite in2="hardAlpha" operator="out"/>
<feColorMatrix type="matrix" values="0 0 0 0 0 0 0 0 0 0 0 0 0 0 0 0 0 0 0.71 0"/>
<feBlend mode="normal" in2="BackgroundImageFix" result="effect1_dropShadow_1_18"/>
<feBlend mode="normal" in="SourceGraphic" in2="effect1_dropShadow_1_18" result="shape"/>
</filter>
<clipPath id="clip0_1_18">
<rect width="97" height="98" fill="white"/>
</clipPath>
</defs>
</svg>
