<svg width="97" height="97" viewBox="0 0 97 97" fill="none" xmlns="http://www.w3.org/2000/svg">
<g clip-path="url(#clip0_1_8)">
<g filter="url(#filter0_d_1_8)">
<path d="M65.576 70.1229C65.9802 68.7083 66.3002 67.2432 66.5359 65.7276C66.7717 64.212 66.8896 62.6795 66.8896 61.1302C66.8896 55.7413 65.7108 50.8071 63.3531 46.3276C60.9955 41.8481 57.7958 38.1264 53.7542 35.1625L47.0854 41.8313C46.6139 42.3028 46.0582 42.4207 45.4182 42.1849C44.7783 41.9491 44.4583 41.4944 44.4583 40.8208V13.6406C44.4583 13.2365 44.6099 12.8828 44.913 12.5797C45.2161 12.2766 45.5698 12.125 45.974 12.125H73.1542C73.8278 12.125 74.2825 12.445 74.5182 13.0849C74.754 13.7248 74.6361 14.2806 74.1646 14.7521L67.4958 21.4208C70.9986 24.5868 73.7941 28.359 75.8823 32.7375C77.9705 37.116 79.0146 41.8649 79.0146 46.9844C79.0146 51.8344 78.0884 56.3476 76.2359 60.524C74.3835 64.7003 71.8406 68.3715 68.6073 71.5375C67.799 72.2785 67.0075 72.4974 66.2328 72.1943C65.4582 71.8911 65.2392 71.2007 65.576 70.1229ZM23.8458 84.875C23.1722 84.875 22.7175 84.555 22.4818 83.9151C22.246 83.2752 22.3639 82.7194 22.8354 82.2479L29.5042 75.5792C25.934 72.4132 23.1217 68.641 21.0672 64.2625C19.0127 59.884 17.9854 55.1351 17.9854 50.0156C17.9854 45.1656 18.9116 40.6524 20.7641 36.476C22.6165 32.2997 25.1594 28.6285 28.3927 25.4625C29.201 24.6542 30.0094 24.4016 30.8177 24.7047C31.626 25.0078 31.8618 25.7319 31.525 26.8771C31.1208 28.359 30.784 29.841 30.5146 31.3229C30.2451 32.8049 30.1104 34.3205 30.1104 35.8698C30.1104 41.2587 31.3061 46.1929 33.6974 50.6724C36.0887 55.1519 39.2715 58.8736 43.2458 61.8375L49.9146 55.1688C50.3861 54.6972 50.9418 54.5793 51.5818 54.8151C52.2217 55.0509 52.5417 55.5056 52.5417 56.1792V83.3594C52.5417 83.7635 52.3901 84.1172 52.087 84.4203C51.7839 84.7234 51.4302 84.875 51.026 84.875H23.8458Z" fill="white"/>
</g>
</g>
<defs>
<filter id="filter0_d_1_8" x="2.98541" y="-2.875" width="91.0292" height="102.75" filterUnits="userSpaceOnUse" color-interpolation-filters="sRGB">
<feFlood flood-opacity="0" result="BackgroundImageFix"/>
<feColorMatrix in="SourceAlpha" type="matrix" values="0 0 0 0 0 0 0 0 0 0 0 0 0 0 0 0 0 0 127 0" result="hardAlpha"/>
<feOffset/>
<feGaussianBlur stdDeviation="7.5"/>
<feComposite in2="hardAlpha" operator="out"/>
<feColorMatrix type="matrix" values="0 0 0 0 0 0 0 0 0 0 0 0 0 0 0 0 0 0 0.71 0"/>
<feBlend mode="normal" in2="BackgroundImageFix" result="effect1_dropShadow_1_8"/>
<feBlend mode="normal" in="SourceGraphic" in2="effect1_dropShadow_1_8" result="shape"/>
</filter>
<clipPath id="clip0_1_8">
<rect width="97" height="97" fill="white"/>
</clipPath>
</defs>
</svg>
