<svg width="859" height="859" viewBox="0 0 859 859" fill="none" xmlns="http://www.w3.org/2000/svg">
<rect width="859" height="859" fill="white"/>
<path d="M429.5 412.792C474.334 412.792 510.605 405.969 538.313 392.324C566.021 378.679 579.875 363.224 579.875 345.958C579.875 328.415 566.021 312.89 538.313 299.384C510.605 285.878 474.334 279.125 429.5 279.125C384.666 279.125 348.395 285.878 320.687 299.384C292.979 312.89 279.125 328.415 279.125 345.958C279.125 363.224 292.979 378.679 320.687 392.324C348.395 405.969 384.666 412.792 429.5 412.792Z" fill="url(#paint0_linear_26_2)"/>
<path d="M429.5 454.562C443.424 454.562 459.018 453.379 476.283 451.012C493.549 448.645 509.909 444.955 525.364 439.943C540.819 434.93 553.768 428.456 564.211 420.519C574.654 412.583 579.875 403.045 579.875 391.906V433.677C579.875 444.816 574.654 454.354 564.211 462.29C553.768 470.227 540.819 476.701 525.364 481.714C509.909 486.726 493.549 490.416 476.283 492.783C459.018 495.15 443.424 496.333 429.5 496.333C415.855 496.333 400.33 495.15 382.926 492.783C365.521 490.416 349.091 486.656 333.636 481.505C318.181 476.353 305.232 469.809 294.789 461.872C284.346 453.936 279.125 444.537 279.125 433.677V391.906C279.125 402.767 284.346 412.165 294.789 420.102C305.232 428.038 318.181 434.582 333.636 439.734C349.091 444.886 365.521 448.645 382.926 451.012C400.33 453.379 415.855 454.562 429.5 454.562Z" fill="url(#paint1_linear_26_2)"/>
<path fill-rule="evenodd" clip-rule="evenodd" d="M476.283 451.012C459.018 453.379 443.424 454.562 429.5 454.562C415.855 454.562 400.33 453.379 382.926 451.012C365.521 448.645 349.091 444.886 333.636 439.734C318.181 434.582 305.232 428.038 294.789 420.102C284.346 412.165 279.125 402.767 279.125 391.906V433.677C279.125 444.537 284.346 453.936 294.789 461.872C305.232 469.809 318.181 476.353 333.636 481.505C349.091 486.656 365.521 490.416 382.926 492.783C400.33 495.15 415.855 496.333 429.5 496.333C443.424 496.333 459.018 495.15 476.283 492.783C493.549 490.416 509.909 486.726 525.364 481.714C540.819 476.701 553.768 470.227 564.211 462.29C574.654 454.354 579.875 444.816 579.875 433.677V391.906C579.875 403.045 574.654 412.583 564.211 420.519C553.768 428.456 540.819 434.93 525.364 439.943C509.909 444.955 493.549 448.645 476.283 451.012ZM476.283 534.554C459.018 536.921 443.424 538.104 429.5 538.104C415.855 538.104 400.33 536.921 382.926 534.554C365.521 532.187 349.091 528.427 333.636 523.276C318.181 518.124 305.232 511.58 294.789 503.643C284.346 495.707 279.125 486.308 279.125 475.448V517.219C279.125 528.079 284.346 537.478 294.789 545.414C305.232 553.351 318.181 559.895 333.636 565.046C349.091 570.198 365.521 573.957 382.926 576.324C400.33 578.692 415.855 579.875 429.5 579.875C443.424 579.875 459.018 578.692 476.283 576.324C493.549 573.957 509.909 570.268 525.364 565.255C540.819 560.243 553.768 553.768 564.211 545.832C574.654 537.895 579.875 528.358 579.875 517.219C579.875 506.08 579.875 475.448 579.875 475.448C579.875 486.587 574.654 496.124 564.211 504.061C553.768 511.997 525.364 523.484 525.364 523.484C525.364 523.484 493.549 532.187 476.283 534.554Z" fill="url(#paint2_linear_26_2)"/>
<path d="M122.724 80.8987C123.171 80.8987 123.603 80.9752 124.019 81.1282C124.451 81.2659 124.828 81.4724 125.152 81.7478C125.491 82.0079 125.761 82.3368 125.961 82.7345C126.161 83.117 126.262 83.553 126.262 84.0426C126.262 84.9911 125.953 86.0696 125.337 87.2782C124.72 88.4868 123.919 89.9019 122.932 91.5236C121.869 93.2523 120.867 94.981 119.927 96.7098C118.987 98.4232 118.108 100.083 117.291 101.689C116.49 103.28 115.75 104.787 115.072 106.21C114.409 107.618 113.831 108.88 113.338 109.997C113.954 110.073 114.571 110.134 115.187 110.18C115.804 110.226 116.359 110.241 116.852 110.226L116.898 111.419C116.79 111.419 116.382 111.419 115.673 111.419C114.979 111.404 114.031 111.312 112.829 111.144C112.351 112.245 111.981 113.102 111.719 113.714C111.473 114.326 111.349 114.647 111.349 114.678L108.598 113.829L109.985 110.685C108.953 110.456 107.866 110.188 106.726 109.882C105.585 109.576 104.421 109.232 103.234 108.849C102.063 108.451 100.892 108.008 99.7202 107.518C98.5488 107.029 97.4236 106.493 96.3447 105.912C95.3429 107.059 94.2563 108.191 93.0848 109.308C91.9135 110.41 90.6573 111.404 89.3164 112.291C87.9754 113.163 86.5497 113.867 85.0392 114.403C83.5441 114.953 81.9643 115.229 80.2997 115.229C78.82 115.229 77.3404 115.007 75.8607 114.563C74.3964 114.135 73.0786 113.508 71.9072 112.681C70.7512 111.84 69.811 110.823 69.0866 109.629C68.3622 108.421 68 107.052 68 105.522C68 104.313 68.2312 103.25 68.6936 102.332C69.1406 101.414 69.7571 100.649 70.5432 100.037C71.3446 99.4252 72.2771 98.9663 73.3406 98.6603C74.4196 98.3391 75.5756 98.1784 76.8086 98.1784C77.7488 98.1784 78.7198 98.2702 79.7217 98.4538C80.739 98.6374 81.7254 98.9434 82.681 99.3717C83.6366 99.8001 84.5383 100.366 85.386 101.07C86.2337 101.774 86.9582 102.646 87.5593 103.686L86.542 104.328C86.5266 104.298 86.4341 104.183 86.2646 103.984C86.1105 103.77 85.8715 103.518 85.5479 103.227C85.2396 102.921 84.8388 102.6 84.3457 102.263C83.8524 101.927 83.259 101.621 82.5654 101.345C81.8872 101.055 81.0934 100.817 80.1841 100.634C79.2901 100.435 78.2728 100.336 77.1323 100.336C75.9763 100.336 74.9668 100.534 74.1036 100.932C73.2405 101.315 72.516 101.812 71.9303 102.424C71.3601 103.02 70.9285 103.694 70.6356 104.443C70.3582 105.193 70.2195 105.92 70.2195 106.623C70.2195 107.449 70.3659 108.207 70.6588 108.895C70.9516 109.568 71.3446 110.18 71.8379 110.731C72.3465 111.282 72.9322 111.764 73.595 112.177C74.2731 112.574 74.9821 112.911 75.722 113.186C76.4772 113.462 77.2402 113.668 78.0108 113.806C78.7969 113.944 79.5598 114.012 80.2997 114.012C81.8256 114.012 83.2898 113.768 84.6924 113.278C86.095 112.773 87.4205 112.115 88.669 111.305C89.9175 110.478 91.0888 109.545 92.1832 108.505C93.2929 107.465 94.3179 106.401 95.2582 105.315C94.21 104.688 93.239 104.015 92.345 103.296C91.4665 102.562 90.7035 101.781 90.0562 100.955C89.4088 100.114 88.9002 99.2188 88.5303 98.2702C88.1758 97.3064 87.9985 96.2891 87.9985 95.2182C87.9985 94.3308 88.1604 93.4971 88.4841 92.7168C88.8231 91.9366 89.2778 91.2558 89.8481 90.6744C90.4338 90.0779 91.1197 89.6112 91.9058 89.2747C92.7072 88.9228 93.5627 88.7468 94.472 88.7468C95.4893 88.7468 96.4526 88.9075 97.362 89.2288C98.2714 89.5348 99.1345 89.9631 99.9514 90.5139C100.768 91.0493 101.531 91.6919 102.24 92.4415C102.965 93.1911 103.643 94.0019 104.275 94.8739C106.001 92.9616 107.72 91.164 109.43 89.4812C111.157 87.7831 112.814 86.2991 114.401 85.0293C115.989 83.7595 117.484 82.7575 118.886 82.0232C120.304 81.2735 121.584 80.8987 122.724 80.8987ZM104.992 95.9295C105.716 97.031 106.379 98.1708 106.98 99.3488C107.581 100.527 108.12 101.682 108.598 102.814C109.091 103.946 109.523 105.025 109.893 106.05C110.278 107.059 110.61 107.954 110.887 108.734C112.69 104.833 114.617 101.009 116.667 97.2605C118.717 93.5123 121.021 89.8101 123.58 86.1538C123.996 85.5418 124.289 85.037 124.458 84.6392C124.643 84.2261 124.736 83.8743 124.736 83.5836C124.736 83.094 124.528 82.7269 124.112 82.4821C123.695 82.222 123.218 82.092 122.678 82.092C120.967 82.092 118.632 83.2547 115.673 85.5801C112.729 87.8902 109.168 91.34 104.992 95.9295ZM90.1024 96.3197C90.1024 97.1305 90.2565 97.9031 90.5648 98.6374C90.8731 99.3564 91.297 100.053 91.8364 100.726C92.3759 101.383 93.0155 102.011 93.7553 102.607C94.4952 103.189 95.2966 103.739 96.1598 104.26C97.3158 102.867 98.4949 101.468 99.6971 100.06C100.899 98.6527 102.117 97.2605 103.35 95.8836C102.811 95.1799 102.248 94.5297 101.662 93.9331C101.092 93.3211 100.491 92.7934 99.8589 92.3497C99.227 91.906 98.5719 91.5618 97.8937 91.317C97.2156 91.0722 96.5143 90.9498 95.7899 90.9498C94.973 90.9498 94.2177 91.0876 93.5241 91.363C92.8306 91.6383 92.2294 92.0208 91.7208 92.5103C91.2122 92.9846 90.8114 93.5506 90.5186 94.2085C90.2411 94.851 90.1024 95.5547 90.1024 96.3197ZM109.87 109.4C109.654 108.712 109.361 107.878 108.991 106.899C108.637 105.92 108.213 104.872 107.72 103.755C107.242 102.623 106.695 101.468 106.078 100.29C105.477 99.1116 104.814 97.9872 104.09 96.9163C103.026 98.1095 101.924 99.3641 100.784 100.68C99.6431 101.995 98.4564 103.395 97.2233 104.879C98.3022 105.476 99.4274 106.019 100.599 106.509C101.786 106.983 102.934 107.411 104.044 107.794C105.169 108.161 106.232 108.482 107.234 108.757C108.251 109.033 109.13 109.247 109.87 109.4ZM135.972 103.089C135.386 102.952 134.878 102.76 134.446 102.516C134.03 102.256 133.691 101.965 133.429 101.644C133.167 101.322 132.974 100.986 132.851 100.634C132.727 100.267 132.666 99.9072 132.666 99.5553C132.666 98.7903 132.882 98.2013 133.313 97.7884C133.745 97.3599 134.284 97.1458 134.932 97.1458C135.363 97.1458 135.733 97.2605 136.041 97.49C136.35 97.7042 136.604 97.9948 136.804 98.362C137.005 98.7292 137.151 99.1575 137.244 99.6471C137.336 100.121 137.382 100.619 137.382 101.139C137.382 101.491 137.367 101.842 137.336 102.194C137.305 102.531 137.251 102.875 137.174 103.227C136.804 104.879 136.257 106.378 135.533 107.725C134.824 109.056 134.014 110.203 133.105 111.167C132.211 112.115 131.255 112.85 130.238 113.37C129.221 113.875 128.227 114.127 127.256 114.127C126.593 114.127 125.961 114.035 125.36 113.852C124.774 113.668 124.25 113.362 123.788 112.934C123.341 112.506 122.986 111.947 122.724 111.259C122.462 110.555 122.331 109.691 122.331 108.666C122.331 107.396 122.578 105.881 123.071 104.122C123.58 102.363 124.435 100.297 125.637 97.926C127.364 94.6062 129.098 91.6306 130.839 88.9993C131.579 87.8825 132.358 86.7886 133.174 85.7178C133.991 84.6469 134.808 83.6907 135.625 82.8493C136.457 82.0079 137.274 81.3347 138.076 80.8299C138.893 80.3097 139.663 80.0496 140.388 80.0496C140.48 80.0496 140.642 80.0649 140.873 80.0955C141.12 80.1261 141.367 80.2103 141.613 80.348C141.859 80.4703 142.076 80.6692 142.26 80.9446C142.461 81.2047 142.561 81.5718 142.561 82.0461C142.561 82.6121 142.407 83.3312 142.098 84.2032C141.805 85.0599 141.359 86.0161 140.758 87.0717C140.172 88.112 139.44 89.2288 138.561 90.4221C137.698 91.6001 136.696 92.7857 135.556 93.9789C134.431 95.1722 133.174 96.3426 131.787 97.49C130.415 98.6374 128.92 99.7083 127.302 100.703C126.763 101.865 126.308 102.921 125.938 103.869C125.583 104.803 125.298 105.652 125.082 106.417C124.867 107.166 124.713 107.832 124.62 108.413C124.528 108.995 124.481 109.499 124.481 109.928C124.481 110.524 124.558 111.022 124.713 111.419C124.882 111.802 125.106 112.108 125.383 112.337C125.661 112.551 125.977 112.704 126.331 112.796C126.685 112.888 127.055 112.934 127.441 112.934C128.165 112.934 128.866 112.75 129.545 112.383C130.238 112.016 130.893 111.542 131.51 110.96C132.126 110.364 132.689 109.698 133.198 108.964C133.722 108.23 134.176 107.503 134.562 106.784C134.947 106.05 135.263 105.361 135.51 104.719C135.756 104.061 135.91 103.518 135.972 103.089ZM128.273 98.6145C129.691 97.6506 130.993 96.6333 132.18 95.5624C133.382 94.4915 134.469 93.4206 135.44 92.3497C136.411 91.2635 137.267 90.2079 138.006 89.1829C138.746 88.1426 139.363 87.1711 139.856 86.2685C140.349 85.3659 140.719 84.5627 140.966 83.859C141.228 83.1399 141.359 82.5586 141.359 82.1149C141.359 81.7172 141.212 81.5183 140.92 81.5183C140.365 81.5183 139.694 81.8166 138.908 82.4133C138.137 83.0099 137.236 83.9814 136.203 85.3276C135.186 86.6739 134.014 88.4333 132.689 90.6056C131.379 92.778 129.907 95.4476 128.273 98.6145ZM136.134 101.896C136.149 101.758 136.157 101.621 136.157 101.483C136.172 101.345 136.18 101.215 136.18 101.093C136.18 100.267 136.072 99.6012 135.856 99.0963C135.641 98.5915 135.332 98.3391 134.932 98.3391C134.839 98.3391 134.731 98.3544 134.608 98.3849C134.5 98.4003 134.384 98.4538 134.261 98.5456C134.153 98.6221 134.061 98.7368 133.984 98.8898C133.907 99.0428 133.868 99.2417 133.868 99.4864C133.868 100.114 134.084 100.634 134.515 101.047C134.962 101.445 135.502 101.728 136.134 101.896Z" fill="url(#paint3_linear_26_2)"/>
<path d="M220.778 170.506C220.671 170.578 220.188 170.829 219.328 171.259C218.469 171.689 217.341 172.154 215.946 172.655C214.548 173.157 212.955 173.605 211.166 173.999C209.376 174.429 207.514 174.644 205.581 174.644C202.43 174.644 199.602 174.088 197.096 172.979C194.59 171.868 192.46 170.291 190.705 168.25C188.987 166.243 187.663 163.808 186.732 160.942C185.801 158.112 185.335 154.959 185.335 151.484C185.335 148.153 185.747 144.499 186.57 140.523C187.394 136.511 188.468 132.391 189.793 128.164C191.117 123.937 192.603 119.71 194.25 115.483C195.933 111.256 197.615 107.243 199.297 103.446C201.016 99.6132 202.645 96.1205 204.185 92.9681C205.724 89.7799 207.048 87.129 208.158 85.0155C206.154 87.3082 203.862 89.959 201.285 92.9681C198.707 95.9414 195.951 99.2191 193.015 102.801C190.115 106.348 187.089 110.145 183.939 114.193C180.789 118.205 177.602 122.396 174.38 126.767C171.194 131.101 168.026 135.561 164.875 140.147C161.724 144.696 158.717 149.281 155.853 153.903L153.275 153.043C153.812 147.204 154.69 141.418 155.907 135.687C157.16 129.919 158.556 124.385 160.096 119.083C161.671 113.745 163.318 108.748 165.037 104.091C166.79 99.3983 168.455 95.2071 170.03 91.5173C167.631 94.813 165.233 98.3952 162.834 102.264C160.471 106.097 158.073 110.056 155.638 114.139C153.204 118.187 150.698 122.271 148.12 126.391C145.542 130.474 142.857 134.415 140.065 138.212C137.272 141.974 134.319 145.502 131.204 148.798C128.125 152.058 124.832 154.888 121.323 157.288C117.85 159.724 114.127 161.64 110.153 163.037C106.215 164.434 101.991 165.132 97.4796 165.132C94.0069 165.132 90.8564 164.613 88.0281 163.575C85.1998 162.536 82.7654 161.103 80.7247 159.276C78.7199 157.485 77.1804 155.371 76.1064 152.935C74.9966 150.499 74.4417 147.866 74.4417 145.036C74.4417 142.278 74.8892 139.788 75.7842 137.567C76.6434 135.311 77.8069 133.322 79.2748 131.603C80.7426 129.848 82.4432 128.343 84.3764 127.089C86.3455 125.8 88.404 124.743 90.5521 123.919C92.7002 123.095 94.8661 122.486 97.05 122.092C99.2696 121.698 101.382 121.501 103.387 121.501C107.54 121.501 111.514 122.002 115.309 123.005C119.103 123.973 122.755 125.71 126.264 128.218L124.384 130.313C124.348 130.277 123.883 129.955 122.988 129.346C122.093 128.701 120.804 128.003 119.121 127.25C117.439 126.498 115.344 125.817 112.838 125.209C110.368 124.6 107.54 124.295 104.353 124.295C101.275 124.295 98.2851 124.707 95.3852 125.531C92.5212 126.355 89.9793 127.609 87.7596 129.292C85.5757 130.94 83.8215 133.036 82.4969 135.579C81.1722 138.087 80.5099 141.042 80.5099 144.445C80.5099 146.881 80.9753 149.138 81.9062 151.216C82.8728 153.294 84.1975 155.085 85.8801 156.589C87.5627 158.13 89.5855 159.33 91.9483 160.189C94.3112 161.049 96.9247 161.479 99.7888 161.479C104.085 161.479 108.202 160.566 112.14 158.739C116.078 156.912 119.873 154.44 123.525 151.323C127.177 148.207 130.685 144.571 134.05 140.415C137.451 136.26 140.709 131.872 143.824 127.25C146.975 122.629 150.018 117.883 152.953 113.011C155.889 108.139 158.735 103.446 161.491 98.9326C164.249 94.3831 166.934 90.1381 169.547 86.1976C172.16 82.2213 174.72 78.8002 177.226 75.9344L179.643 77.3852C178.068 82.1855 176.707 86.4126 175.562 90.0665C174.416 93.6845 173.414 96.8728 172.555 99.6311C171.731 102.389 171.015 104.772 170.407 106.778C169.834 108.784 169.333 110.575 168.903 112.151C168.473 113.727 168.079 115.16 167.721 116.45C167.399 117.704 167.059 118.958 166.701 120.211C166.379 121.465 166.002 122.79 165.573 124.188C165.143 125.585 164.624 127.215 164.016 129.077C163.407 130.904 162.691 133.036 161.868 135.472C161.045 137.872 160.042 140.72 158.86 144.015C161.868 139.466 164.946 134.988 168.097 130.582C171.283 126.176 174.452 121.913 177.602 117.793C180.753 113.674 183.831 109.733 186.838 105.972C189.882 102.21 192.747 98.7177 195.431 95.4936C198.152 92.2696 200.64 89.35 202.896 86.735C205.187 84.0841 207.174 81.8273 208.857 79.9645C210.539 78.1017 211.846 76.6509 212.777 75.612C213.743 74.5732 214.244 74.0358 214.28 74L216.536 75.6658C214.424 80.8959 212.329 86.1439 210.252 91.4098C208.176 96.6399 206.171 101.745 204.238 106.724C202.341 111.703 200.569 116.504 198.922 121.125C197.275 125.746 195.843 130.08 194.626 134.128C193.408 138.141 192.442 141.812 191.726 145.144C191.045 148.44 190.705 151.27 190.705 153.634C190.705 156.428 191.028 158.954 191.673 161.21C192.352 163.467 193.319 165.384 194.572 166.96C195.825 168.536 197.364 169.736 199.191 170.56C201.052 171.42 203.147 171.85 205.473 171.85C207.228 171.85 208.928 171.653 210.575 171.259C212.258 170.864 213.743 170.435 215.032 169.969C216.321 169.503 217.359 169.074 218.147 168.68C218.935 168.285 219.346 168.088 219.382 168.088L220.778 170.506Z" fill="url(#paint4_linear_26_2)"/>
<rect x="90" y="702" width="680" height="38" fill="url(#paint5_linear_26_2)"/>
<rect x="90" y="702" width="680" height="38" fill="url(#paint6_linear_26_2)"/>
<rect x="90" y="702" width="680" height="38" fill="url(#paint7_linear_26_2)"/>
<path d="M314.558 731V730.28L317.222 729.992H317.702L320.438 730.28V731H314.558ZM314.606 714.272V713.528H317.894V714.536H317.678L314.606 714.272ZM316.958 731L317.006 713.528H317.75L317.918 721.712V731H316.958ZM324.182 731L317.366 714.32H317.222V713.528H319.19L325.382 728.84H324.878L325.022 728.528L330.998 713.528H331.934V714.32H331.622L331.358 714.944L324.974 731H324.182ZM328.646 731V730.28L331.91 729.992H332.414L335.774 730.28V731H328.646ZM331.046 731C331.118 728.336 331.094 725.648 331.118 723.2L331.214 713.528H333.278C333.206 716.192 333.206 718.904 333.206 721.616V722.936C333.206 725.648 333.206 728.36 333.278 731H331.046ZM332.15 714.536V713.528H335.702V714.272L332.414 714.536H332.15ZM343.534 731.36C339.958 731.36 337.414 729.176 337.414 724.856C337.414 720.8 340.15 718.28 343.318 718.28C346.438 718.28 348.286 720.44 348.286 723.248C348.286 723.848 348.238 724.328 348.142 724.712H338.326V723.944H345.31C346.15 723.944 346.39 723.536 346.39 722.552C346.39 720.512 345.238 719.048 343.27 719.048C341.158 719.048 339.478 721.088 339.478 724.568C339.478 728.456 341.398 730.16 344.062 730.16C345.742 730.16 346.966 729.56 347.95 728.408L348.334 728.744C347.278 730.376 345.694 731.36 343.534 731.36ZM353.083 719.528V718.64H357.523V719.528H353.083ZM355.027 731.36C353.011 731.36 352.075 730.328 352.075 728.192C352.075 727.424 352.099 726.92 352.099 726.032V719.528H349.723V718.784L352.603 718.568L352.147 718.904L352.843 714.872H354.187L354.091 719V728.192C354.091 729.68 354.667 730.304 355.723 730.304C356.443 730.304 356.899 730.112 357.547 729.704L357.883 730.136C357.235 730.928 356.299 731.36 355.027 731.36ZM362.735 731.36C360.839 731.36 359.423 730.256 359.423 728.24C359.423 726.392 360.551 725.168 363.719 724.232C365.063 723.848 366.599 723.44 367.895 723.152V723.728C366.623 724.064 365.231 724.448 364.151 724.856C362.135 725.6 361.343 726.632 361.343 727.928C361.343 729.44 362.255 730.184 363.599 730.184C364.655 730.184 365.591 729.632 367.439 727.784L367.655 728.912H367.079C365.591 730.544 364.535 731.36 362.735 731.36ZM369.143 731.336C367.727 731.336 367.031 730.328 366.935 728.624V722.384C366.935 719.72 366.095 719.024 364.199 719.024C363.263 719.024 362.375 719.264 361.295 719.864L362.351 719.216L361.943 721.112C361.823 721.976 361.391 722.264 360.815 722.264C360.263 722.264 359.879 721.976 359.759 721.424C360.215 719.456 362.015 718.28 364.727 718.28C367.511 718.28 368.855 719.504 368.855 722.504V728.432C368.855 729.92 369.191 730.352 369.863 730.352C370.271 730.352 370.535 730.208 370.943 729.752L371.327 730.136C370.799 730.952 370.079 731.336 369.143 731.336ZM377.967 731.36C374.895 731.36 372.711 728.792 372.711 724.976C372.711 720.824 375.159 718.28 378.303 718.28C379.695 718.28 381.015 718.928 382.191 720.512H382.431L382.119 721.136C380.991 719.888 379.983 719.384 378.807 719.384C376.623 719.384 374.823 720.992 374.823 724.928C374.823 728.576 376.455 730.232 378.663 730.232C379.959 730.232 380.967 729.704 382.095 728.36L382.383 729.032H382.167C381.063 730.616 379.623 731.36 377.967 731.36ZM381.927 731.24L381.807 728.888V720.68L381.855 720.44V713.168L379.695 713.048V712.4L383.487 711.68L383.847 711.896L383.775 715.544V730.184L386.007 730.352V731L381.927 731.24ZM391.071 731.36C389.175 731.36 387.759 730.256 387.759 728.24C387.759 726.392 388.887 725.168 392.055 724.232C393.399 723.848 394.935 723.44 396.231 723.152V723.728C394.959 724.064 393.567 724.448 392.487 724.856C390.471 725.6 389.679 726.632 389.679 727.928C389.679 729.44 390.591 730.184 391.935 730.184C392.991 730.184 393.927 729.632 395.775 727.784L395.991 728.912H395.415C393.927 730.544 392.871 731.36 391.071 731.36ZM397.479 731.336C396.063 731.336 395.367 730.328 395.271 728.624V722.384C395.271 719.72 394.431 719.024 392.535 719.024C391.599 719.024 390.711 719.264 389.631 719.864L390.687 719.216L390.279 721.112C390.159 721.976 389.727 722.264 389.151 722.264C388.599 722.264 388.215 721.976 388.095 721.424C388.551 719.456 390.351 718.28 393.063 718.28C395.847 718.28 397.191 719.504 397.191 722.504V728.432C397.191 729.92 397.527 730.352 398.199 730.352C398.607 730.352 398.871 730.208 399.279 729.752L399.663 730.136C399.135 730.952 398.415 731.336 397.479 731.336ZM403.591 719.528V718.64H408.031V719.528H403.591ZM405.535 731.36C403.519 731.36 402.583 730.328 402.583 728.192C402.583 727.424 402.607 726.92 402.607 726.032V719.528H400.231V718.784L403.111 718.568L402.655 718.904L403.351 714.872H404.695L404.599 719V728.192C404.599 729.68 405.175 730.304 406.231 730.304C406.951 730.304 407.407 730.112 408.055 729.704L408.391 730.136C407.743 730.928 406.807 731.36 405.535 731.36ZM413.243 731.36C411.347 731.36 409.931 730.256 409.931 728.24C409.931 726.392 411.059 725.168 414.227 724.232C415.571 723.848 417.107 723.44 418.403 723.152V723.728C417.131 724.064 415.739 724.448 414.659 724.856C412.643 725.6 411.851 726.632 411.851 727.928C411.851 729.44 412.763 730.184 414.107 730.184C415.163 730.184 416.099 729.632 417.947 727.784L418.163 728.912H417.587C416.099 730.544 415.043 731.36 413.243 731.36ZM419.651 731.336C418.235 731.336 417.539 730.328 417.443 728.624V722.384C417.443 719.72 416.603 719.024 414.707 719.024C413.771 719.024 412.883 719.264 411.803 719.864L412.859 719.216L412.451 721.112C412.331 721.976 411.899 722.264 411.323 722.264C410.771 722.264 410.387 721.976 410.267 721.424C410.723 719.456 412.523 718.28 415.235 718.28C418.019 718.28 419.363 719.504 419.363 722.504V728.432C419.363 729.92 419.699 730.352 420.371 730.352C420.779 730.352 421.043 730.208 421.451 729.752L421.835 730.136C421.307 730.952 420.587 731.336 419.651 731.336ZM438.335 731.408C433.079 731.408 429.551 727.736 429.551 722.264C429.551 716.816 433.175 713.144 438.407 713.144C440.567 713.144 442.103 713.624 443.591 714.536L443.639 718.376H442.559L441.743 714.2L442.967 714.68V715.568C441.575 714.44 440.399 713.984 438.671 713.984C434.663 713.984 431.831 717.032 431.831 722.288C431.831 727.376 434.543 730.568 438.551 730.568C440.087 730.568 441.335 730.208 442.679 729.464L441.887 730.16V728.6C441.887 726.584 441.839 724.664 441.791 722.648H443.975C443.927 724.472 443.903 726.32 443.903 728.624V729.848C442.031 730.928 440.423 731.408 438.335 731.408ZM438.983 723.368V722.648H445.679V723.368L443.087 723.632H442.319L438.983 723.368ZM453.268 731.36C449.692 731.36 447.148 729.176 447.148 724.856C447.148 720.8 449.884 718.28 453.052 718.28C456.172 718.28 458.02 720.44 458.02 723.248C458.02 723.848 457.972 724.328 457.876 724.712H448.06V723.944H455.044C455.884 723.944 456.124 723.536 456.124 722.552C456.124 720.512 454.972 719.048 453.004 719.048C450.892 719.048 449.212 721.088 449.212 724.568C449.212 728.456 451.132 730.16 453.796 730.16C455.476 730.16 456.7 729.56 457.684 728.408L458.068 728.744C457.012 730.376 455.428 731.36 453.268 731.36ZM460.105 731V730.352L462.721 730.088H463.489L465.985 730.352V731H460.105ZM462.073 731C462.145 729.848 462.169 727.16 462.169 725.528V724.064C462.169 722.432 462.145 721.232 462.073 720.032L459.961 719.912V719.312L463.657 718.328L463.969 718.544L464.137 721.328V725.528C464.137 727.16 464.161 729.848 464.209 731H462.073ZM468.265 731V730.352L470.857 730.088H471.649L474.145 730.352V731H468.265ZM470.233 731C470.281 729.848 470.305 727.208 470.305 725.528V722.744C470.305 720.392 469.489 719.576 468.097 719.576C467.017 719.576 465.457 720.152 463.729 722.072L463.513 721.28H463.753C465.505 719.12 467.233 718.28 468.913 718.28C471.001 718.28 472.249 719.552 472.249 722.792V725.528C472.249 727.208 472.297 729.848 472.345 731H470.233ZM482.26 731.36C478.684 731.36 476.14 729.176 476.14 724.856C476.14 720.8 478.876 718.28 482.044 718.28C485.164 718.28 487.012 720.44 487.012 723.248C487.012 723.848 486.964 724.328 486.868 724.712H477.052V723.944H484.036C484.876 723.944 485.116 723.536 485.116 722.552C485.116 720.512 483.964 719.048 481.996 719.048C479.884 719.048 478.204 721.088 478.204 724.568C478.204 728.456 480.124 730.16 482.788 730.16C484.468 730.16 485.692 729.56 486.676 728.408L487.06 728.744C486.004 730.376 484.42 731.36 482.26 731.36ZM489.097 731V730.352L491.737 730.064H492.721L495.433 730.352V731H489.097ZM491.065 731C491.137 729.848 491.161 727.16 491.161 725.528V724.064C491.161 722.432 491.137 721.232 491.065 720.032L488.953 719.912V719.312L492.649 718.328L492.961 718.544L493.129 721.928V725.528C493.129 727.16 493.153 729.848 493.201 731H491.065ZM493.105 723.368L492.577 722.12H493.009C493.753 719.768 495.433 718.28 497.113 718.28C498.049 718.28 498.817 718.664 499.033 719.36C499.033 720.2 498.649 720.704 497.785 720.704C497.185 720.704 496.753 720.392 496.201 719.816L495.649 719.288L496.753 719.312C495.073 719.792 493.945 721.016 493.105 723.368ZM503.407 731.36C501.511 731.36 500.095 730.256 500.095 728.24C500.095 726.392 501.223 725.168 504.391 724.232C505.735 723.848 507.271 723.44 508.567 723.152V723.728C507.295 724.064 505.903 724.448 504.823 724.856C502.807 725.6 502.015 726.632 502.015 727.928C502.015 729.44 502.927 730.184 504.271 730.184C505.327 730.184 506.263 729.632 508.111 727.784L508.327 728.912H507.751C506.263 730.544 505.207 731.36 503.407 731.36ZM509.815 731.336C508.399 731.336 507.703 730.328 507.607 728.624V722.384C507.607 719.72 506.767 719.024 504.871 719.024C503.935 719.024 503.047 719.264 501.967 719.864L503.023 719.216L502.615 721.112C502.495 721.976 502.063 722.264 501.487 722.264C500.935 722.264 500.551 721.976 500.431 721.424C500.887 719.456 502.687 718.28 505.399 718.28C508.183 718.28 509.527 719.504 509.527 722.504V728.432C509.527 729.92 509.863 730.352 510.535 730.352C510.943 730.352 511.207 730.208 511.615 729.752L511.999 730.136C511.471 730.952 510.751 731.336 509.815 731.336ZM515.926 719.528V718.64H520.366V719.528H515.926ZM517.87 731.36C515.854 731.36 514.918 730.328 514.918 728.192C514.918 727.424 514.942 726.92 514.942 726.032V719.528H512.566V718.784L515.446 718.568L514.99 718.904L515.686 714.872H517.03L516.934 719V728.192C516.934 729.68 517.51 730.304 518.566 730.304C519.286 730.304 519.742 730.112 520.39 729.704L520.726 730.136C520.078 730.928 519.142 731.36 517.87 731.36ZM528.148 731.36C524.956 731.36 522.172 729.152 522.172 724.832C522.172 720.512 525.052 718.28 528.148 718.28C531.244 718.28 534.148 720.512 534.148 724.832C534.148 729.152 531.316 731.36 528.148 731.36ZM528.148 730.616C530.524 730.616 531.988 728.6 531.988 724.856C531.988 721.112 530.524 719.048 528.148 719.048C525.772 719.048 524.308 721.112 524.308 724.856C524.308 728.6 525.772 730.616 528.148 730.616ZM536.3 731V730.352L538.94 730.064H539.924L542.636 730.352V731H536.3ZM538.268 731C538.34 729.848 538.364 727.16 538.364 725.528V724.064C538.364 722.432 538.34 721.232 538.268 720.032L536.156 719.912V719.312L539.852 718.328L540.164 718.544L540.332 721.928V725.528C540.332 727.16 540.356 729.848 540.404 731H538.268ZM540.308 723.368L539.78 722.12H540.212C540.956 719.768 542.636 718.28 544.316 718.28C545.252 718.28 546.02 718.664 546.236 719.36C546.236 720.2 545.852 720.704 544.988 720.704C544.388 720.704 543.956 720.392 543.404 719.816L542.852 719.288L543.956 719.312C542.276 719.792 541.148 721.016 540.308 723.368Z" fill="white"/>
<defs>
<linearGradient id="paint0_linear_26_2" x1="553.5" y1="287.5" x2="462" y2="460" gradientUnits="userSpaceOnUse">
<stop stop-color="#6989FB"/>
<stop offset="1" stop-color="#F95B5B"/>
</linearGradient>
<linearGradient id="paint1_linear_26_2" x1="553.5" y1="287.5" x2="462" y2="460" gradientUnits="userSpaceOnUse">
<stop stop-color="#6989FB"/>
<stop offset="1" stop-color="#F95B5B"/>
</linearGradient>
<linearGradient id="paint2_linear_26_2" x1="529.5" y1="441" x2="399.5" y2="595.5" gradientUnits="userSpaceOnUse">
<stop stop-color="#286DD5"/>
<stop offset="1" stop-color="#F75E5E"/>
</linearGradient>
<linearGradient id="paint3_linear_26_2" x1="105.28" y1="80.0496" x2="154.226" y2="138.614" gradientUnits="userSpaceOnUse">
<stop stop-color="#4E92F9"/>
<stop offset="1" stop-opacity="0"/>
<stop offset="1" stop-opacity="0"/>
<stop offset="1" stop-color="#FF0000"/>
</linearGradient>
<linearGradient id="paint4_linear_26_2" x1="147.61" y1="74" x2="287.17" y2="188.557" gradientUnits="userSpaceOnUse">
<stop stop-color="#4E92F9"/>
<stop offset="1" stop-opacity="0"/>
<stop offset="1" stop-opacity="0"/>
<stop offset="1" stop-color="#FF0000"/>
</linearGradient>
<linearGradient id="paint5_linear_26_2" x1="90" y1="720.345" x2="770" y2="720.345" gradientUnits="userSpaceOnUse">
<stop offset="0.0677083" stop-color="#CCFF00" stop-opacity="0"/>
<stop offset="0.145833" stop-color="#00FF19" stop-opacity="0.05"/>
<stop offset="0.494917" stop-color="#0066FF" stop-opacity="0.38"/>
<stop offset="0.807292" stop-color="#FF0000" stop-opacity="0.28"/>
<stop offset="0.901042" stop-color="#FF0000" stop-opacity="0"/>
</linearGradient>
<linearGradient id="paint6_linear_26_2" x1="90" y1="720.345" x2="770" y2="720.345" gradientUnits="userSpaceOnUse">
<stop offset="0.0677083" stop-color="#CCFF00" stop-opacity="0"/>
<stop offset="0.145833" stop-color="#00FF19" stop-opacity="0.05"/>
<stop offset="0.494917" stop-color="#0066FF" stop-opacity="0.38"/>
<stop offset="0.807292" stop-color="#FF0000" stop-opacity="0.28"/>
<stop offset="0.901042" stop-color="#FF0000" stop-opacity="0"/>
</linearGradient>
<linearGradient id="paint7_linear_26_2" x1="90" y1="720.345" x2="770" y2="720.345" gradientUnits="userSpaceOnUse">
<stop offset="0.078025" stop-color="white" stop-opacity="0"/>
<stop offset="0.078125" stop-color="white" stop-opacity="0.01"/>
<stop offset="0.494917" stop-color="white" stop-opacity="0.25"/>
<stop offset="0.927083" stop-color="white" stop-opacity="0.01"/>
<stop offset="0.927183" stop-color="white" stop-opacity="0"/>
</linearGradient>
</defs>
</svg>
