<svg width="859" height="859" viewBox="0 0 859 859" fill="none" xmlns="http://www.w3.org/2000/svg">
<rect width="859" height="859" fill="white"/>
<path d="M528.638 266.77C527.788 266.1 526.678 265.843 525.621 266.095L353.178 306.253C351.571 306.625 350.442 308.059 350.442 309.704V535.732C350.442 537.689 352.03 539.277 353.987 539.277C355.945 539.277 357.53 537.692 357.53 535.732V347.89L522.893 309.38V495.571C522.893 497.529 524.483 499.116 526.44 499.116C528.398 499.116 529.983 497.531 529.983 495.571V269.544C529.978 268.463 529.481 267.44 528.638 266.77Z" fill="url(#paint0_linear_6_13)"/>
<path d="M495.724 459.552C476.82 459.552 461.448 474.93 461.448 493.828C461.448 512.732 476.82 528.104 495.724 528.104C514.624 528.104 530 512.732 530 493.828C530.002 474.93 514.626 459.552 495.724 459.552Z" fill="url(#paint1_linear_6_13)"/>
<path d="M323.276 499.808C304.371 499.808 289 515.182 289 534.084C289 552.984 304.371 568.36 323.276 568.36C342.176 568.36 357.552 552.984 357.552 534.084C357.552 515.184 342.176 499.808 323.276 499.808Z" fill="url(#paint2_linear_6_13)"/>
<path d="M122.724 80.8987C123.171 80.8987 123.603 80.9752 124.019 81.1282C124.451 81.2659 124.828 81.4724 125.152 81.7478C125.491 82.0079 125.761 82.3368 125.961 82.7345C126.161 83.117 126.262 83.553 126.262 84.0426C126.262 84.9911 125.953 86.0696 125.337 87.2782C124.72 88.4868 123.919 89.9019 122.932 91.5236C121.869 93.2523 120.867 94.981 119.927 96.7098C118.987 98.4232 118.108 100.083 117.291 101.689C116.49 103.28 115.75 104.787 115.072 106.21C114.409 107.618 113.831 108.88 113.338 109.997C113.954 110.073 114.571 110.134 115.187 110.18C115.804 110.226 116.359 110.241 116.852 110.226L116.898 111.419C116.79 111.419 116.382 111.419 115.673 111.419C114.979 111.404 114.031 111.312 112.829 111.144C112.351 112.245 111.981 113.102 111.719 113.714C111.473 114.326 111.349 114.647 111.349 114.678L108.598 113.829L109.985 110.685C108.953 110.456 107.866 110.188 106.726 109.882C105.585 109.576 104.421 109.232 103.234 108.849C102.063 108.451 100.892 108.008 99.7202 107.518C98.5488 107.029 97.4236 106.493 96.3447 105.912C95.3429 107.059 94.2563 108.191 93.0848 109.308C91.9135 110.41 90.6573 111.404 89.3164 112.291C87.9754 113.163 86.5497 113.867 85.0392 114.403C83.5441 114.953 81.9643 115.229 80.2997 115.229C78.82 115.229 77.3404 115.007 75.8607 114.563C74.3964 114.135 73.0786 113.508 71.9072 112.681C70.7512 111.84 69.811 110.823 69.0866 109.629C68.3622 108.421 68 107.052 68 105.522C68 104.313 68.2312 103.25 68.6936 102.332C69.1406 101.414 69.7571 100.649 70.5432 100.037C71.3446 99.4252 72.2771 98.9663 73.3406 98.6603C74.4196 98.3391 75.5756 98.1784 76.8086 98.1784C77.7488 98.1784 78.7198 98.2702 79.7217 98.4538C80.739 98.6374 81.7254 98.9434 82.681 99.3717C83.6366 99.8001 84.5383 100.366 85.386 101.07C86.2337 101.774 86.9582 102.646 87.5593 103.686L86.542 104.328C86.5266 104.298 86.4341 104.183 86.2646 103.984C86.1105 103.77 85.8715 103.518 85.5479 103.227C85.2396 102.921 84.8388 102.6 84.3457 102.263C83.8524 101.927 83.259 101.621 82.5654 101.345C81.8872 101.055 81.0934 100.817 80.1841 100.634C79.2901 100.435 78.2728 100.336 77.1323 100.336C75.9763 100.336 74.9668 100.534 74.1036 100.932C73.2405 101.315 72.516 101.812 71.9303 102.424C71.3601 103.02 70.9285 103.694 70.6356 104.443C70.3582 105.193 70.2195 105.92 70.2195 106.623C70.2195 107.449 70.3659 108.207 70.6588 108.895C70.9516 109.568 71.3446 110.18 71.8379 110.731C72.3465 111.282 72.9322 111.764 73.595 112.177C74.2731 112.574 74.9821 112.911 75.722 113.186C76.4772 113.462 77.2402 113.668 78.0108 113.806C78.7969 113.944 79.5598 114.012 80.2997 114.012C81.8256 114.012 83.2899 113.768 84.6924 113.278C86.095 112.773 87.4205 112.115 88.669 111.305C89.9175 110.478 91.0888 109.545 92.1832 108.505C93.2929 107.465 94.3179 106.401 95.2582 105.315C94.21 104.688 93.239 104.015 92.345 103.296C91.4665 102.562 90.7035 101.781 90.0562 100.955C89.4088 100.114 88.9002 99.2188 88.5303 98.2702C88.1758 97.3064 87.9985 96.2891 87.9985 95.2182C87.9985 94.3308 88.1604 93.4971 88.4841 92.7168C88.8231 91.9366 89.2778 91.2558 89.8481 90.6744C90.4338 90.0779 91.1197 89.6112 91.9058 89.2747C92.7072 88.9228 93.5627 88.7468 94.472 88.7468C95.4893 88.7468 96.4526 88.9075 97.362 89.2288C98.2714 89.5348 99.1345 89.9631 99.9514 90.5139C100.768 91.0493 101.531 91.6919 102.24 92.4415C102.965 93.1911 103.643 94.0019 104.275 94.8739C106.001 92.9616 107.72 91.164 109.43 89.4812C111.157 87.7831 112.814 86.2991 114.401 85.0293C115.989 83.7595 117.484 82.7575 118.886 82.0232C120.304 81.2735 121.584 80.8987 122.724 80.8987ZM104.992 95.9295C105.716 97.031 106.379 98.1708 106.98 99.3488C107.581 100.527 108.12 101.682 108.598 102.814C109.091 103.946 109.523 105.025 109.893 106.05C110.278 107.059 110.61 107.954 110.887 108.734C112.69 104.833 114.617 101.009 116.667 97.2605C118.717 93.5123 121.021 89.8101 123.58 86.1538C123.996 85.5418 124.289 85.037 124.458 84.6392C124.643 84.2261 124.736 83.8743 124.736 83.5836C124.736 83.094 124.528 82.7269 124.112 82.4821C123.695 82.222 123.218 82.092 122.678 82.092C120.967 82.092 118.632 83.2547 115.673 85.5801C112.729 87.8902 109.168 91.34 104.992 95.9295ZM90.1024 96.3197C90.1024 97.1305 90.2565 97.9031 90.5648 98.6374C90.8731 99.3564 91.297 100.053 91.8364 100.726C92.3759 101.383 93.0155 102.011 93.7553 102.607C94.4952 103.189 95.2966 103.739 96.1598 104.26C97.3158 102.867 98.4949 101.468 99.6971 100.06C100.899 98.6527 102.117 97.2605 103.35 95.8836C102.811 95.1799 102.248 94.5297 101.662 93.9331C101.092 93.3211 100.491 92.7934 99.8589 92.3497C99.227 91.906 98.5719 91.5618 97.8937 91.317C97.2156 91.0722 96.5143 90.9498 95.7899 90.9498C94.973 90.9498 94.2177 91.0876 93.5241 91.363C92.8306 91.6383 92.2294 92.0208 91.7208 92.5103C91.2122 92.9846 90.8114 93.5506 90.5186 94.2085C90.2411 94.851 90.1024 95.5547 90.1024 96.3197ZM109.87 109.4C109.654 108.712 109.361 107.878 108.991 106.899C108.637 105.92 108.213 104.872 107.72 103.755C107.242 102.623 106.695 101.468 106.078 100.29C105.477 99.1116 104.814 97.9872 104.09 96.9163C103.026 98.1095 101.924 99.3641 100.784 100.68C99.6431 101.995 98.4564 103.395 97.2233 104.879C98.3022 105.476 99.4274 106.019 100.599 106.509C101.786 106.983 102.934 107.411 104.044 107.794C105.169 108.161 106.232 108.482 107.234 108.757C108.251 109.033 109.13 109.247 109.87 109.4ZM135.972 103.089C135.386 102.952 134.878 102.76 134.446 102.516C134.03 102.256 133.691 101.965 133.429 101.644C133.167 101.322 132.974 100.986 132.851 100.634C132.727 100.267 132.666 99.9072 132.666 99.5553C132.666 98.7903 132.882 98.2013 133.313 97.7884C133.745 97.3599 134.284 97.1458 134.932 97.1458C135.363 97.1458 135.733 97.2605 136.041 97.49C136.35 97.7042 136.604 97.9948 136.804 98.362C137.005 98.7292 137.151 99.1575 137.244 99.6471C137.336 100.121 137.382 100.619 137.382 101.139C137.382 101.491 137.367 101.842 137.336 102.194C137.305 102.531 137.251 102.875 137.174 103.227C136.804 104.879 136.257 106.378 135.533 107.725C134.824 109.056 134.014 110.203 133.105 111.167C132.211 112.115 131.255 112.85 130.238 113.37C129.221 113.875 128.227 114.127 127.256 114.127C126.593 114.127 125.961 114.035 125.36 113.852C124.774 113.668 124.25 113.362 123.788 112.934C123.341 112.506 122.986 111.947 122.724 111.259C122.462 110.555 122.331 109.691 122.331 108.666C122.331 107.396 122.578 105.881 123.071 104.122C123.58 102.363 124.435 100.297 125.637 97.926C127.364 94.6062 129.098 91.6306 130.839 88.9993C131.579 87.8825 132.358 86.7886 133.174 85.7178C133.991 84.6469 134.808 83.6907 135.625 82.8493C136.457 82.0079 137.274 81.3347 138.076 80.8299C138.893 80.3097 139.663 80.0496 140.388 80.0496C140.48 80.0496 140.642 80.0649 140.873 80.0955C141.12 80.1261 141.367 80.2103 141.613 80.348C141.859 80.4703 142.076 80.6692 142.26 80.9446C142.461 81.2047 142.561 81.5718 142.561 82.0461C142.561 82.6121 142.407 83.3312 142.098 84.2032C141.805 85.0599 141.359 86.0161 140.758 87.0717C140.172 88.112 139.44 89.2288 138.561 90.4221C137.698 91.6001 136.696 92.7857 135.556 93.9789C134.431 95.1722 133.174 96.3426 131.787 97.49C130.415 98.6374 128.92 99.7083 127.302 100.703C126.763 101.865 126.308 102.921 125.938 103.869C125.583 104.803 125.298 105.652 125.082 106.417C124.867 107.166 124.713 107.832 124.62 108.413C124.528 108.995 124.481 109.499 124.481 109.928C124.481 110.524 124.558 111.022 124.713 111.419C124.882 111.802 125.106 112.108 125.383 112.337C125.661 112.551 125.977 112.704 126.331 112.796C126.685 112.888 127.055 112.934 127.441 112.934C128.165 112.934 128.866 112.75 129.545 112.383C130.238 112.016 130.893 111.542 131.51 110.96C132.126 110.364 132.689 109.698 133.198 108.964C133.722 108.23 134.176 107.503 134.562 106.784C134.947 106.05 135.263 105.361 135.51 104.719C135.756 104.061 135.91 103.518 135.972 103.089ZM128.273 98.6145C129.691 97.6506 130.993 96.6333 132.18 95.5624C133.382 94.4915 134.469 93.4206 135.44 92.3497C136.411 91.2635 137.267 90.2079 138.006 89.1829C138.746 88.1426 139.363 87.1711 139.856 86.2685C140.349 85.3659 140.719 84.5627 140.966 83.859C141.228 83.1399 141.359 82.5586 141.359 82.1149C141.359 81.7172 141.212 81.5183 140.92 81.5183C140.365 81.5183 139.694 81.8166 138.908 82.4133C138.137 83.0099 137.236 83.9814 136.203 85.3276C135.186 86.6739 134.014 88.4333 132.689 90.6056C131.379 92.778 129.907 95.4476 128.273 98.6145ZM136.134 101.896C136.149 101.758 136.157 101.621 136.157 101.483C136.172 101.345 136.18 101.215 136.18 101.093C136.18 100.267 136.072 99.6012 135.856 99.0963C135.641 98.5915 135.332 98.3391 134.932 98.3391C134.839 98.3391 134.731 98.3544 134.608 98.3849C134.5 98.4003 134.384 98.4538 134.261 98.5456C134.153 98.6221 134.061 98.7368 133.984 98.8898C133.907 99.0428 133.868 99.2417 133.868 99.4864C133.868 100.114 134.084 100.634 134.515 101.047C134.962 101.445 135.502 101.728 136.134 101.896Z" fill="url(#paint3_linear_6_13)"/>
<path d="M220.778 170.506C220.671 170.578 220.188 170.829 219.328 171.259C218.469 171.689 217.341 172.154 215.946 172.655C214.548 173.157 212.955 173.605 211.166 173.999C209.376 174.429 207.514 174.644 205.581 174.644C202.43 174.644 199.602 174.088 197.096 172.979C194.59 171.868 192.46 170.291 190.705 168.25C188.987 166.243 187.662 163.808 186.732 160.942C185.801 158.112 185.335 154.959 185.335 151.484C185.335 148.153 185.747 144.499 186.57 140.523C187.394 136.511 188.468 132.391 189.793 128.164C191.117 123.937 192.603 119.71 194.25 115.483C195.933 111.256 197.615 107.243 199.297 103.446C201.016 99.6133 202.645 96.1205 204.185 92.9681C205.724 89.7799 207.048 87.129 208.158 85.0155C206.154 87.3082 203.862 89.959 201.285 92.9681C198.707 95.9414 195.951 99.2191 193.015 102.801C190.115 106.348 187.089 110.145 183.939 114.193C180.789 118.205 177.602 122.396 174.38 126.767C171.194 131.101 168.026 135.561 164.875 140.147C161.724 144.696 158.717 149.281 155.853 153.903L153.275 153.043C153.812 147.204 154.69 141.418 155.907 135.687C157.16 129.919 158.556 124.385 160.096 119.083C161.671 113.745 163.318 108.748 165.037 104.091C166.79 99.3983 168.455 95.2071 170.03 91.5173C167.631 94.813 165.233 98.3953 162.834 102.264C160.471 106.097 158.073 110.056 155.638 114.139C153.204 118.187 150.698 122.271 148.12 126.391C145.542 130.474 142.857 134.415 140.065 138.212C137.272 141.974 134.319 145.502 131.204 148.798C128.125 152.058 124.832 154.888 121.323 157.288C117.85 159.724 114.127 161.64 110.153 163.037C106.215 164.434 101.991 165.132 97.4796 165.132C94.0069 165.132 90.8564 164.613 88.0281 163.575C85.1998 162.536 82.7654 161.103 80.7247 159.276C78.7199 157.485 77.1804 155.371 76.1064 152.935C74.9966 150.499 74.4417 147.866 74.4417 145.036C74.4417 142.278 74.8892 139.788 75.7842 137.567C76.6434 135.311 77.8069 133.322 79.2748 131.603C80.7426 129.848 82.4432 128.343 84.3764 127.089C86.3455 125.8 88.404 124.743 90.5521 123.919C92.7002 123.095 94.8661 122.486 97.05 122.092C99.2696 121.698 101.382 121.501 103.387 121.501C107.54 121.501 111.514 122.002 115.309 123.005C119.103 123.973 122.755 125.71 126.264 128.218L124.384 130.313C124.348 130.277 123.883 129.955 122.988 129.346C122.093 128.701 120.804 128.003 119.121 127.25C117.439 126.498 115.344 125.817 112.838 125.209C110.368 124.6 107.54 124.295 104.353 124.295C101.275 124.295 98.2851 124.707 95.3852 125.531C92.5212 126.355 89.9793 127.609 87.7596 129.292C85.5757 130.94 83.8215 133.036 82.4969 135.579C81.1722 138.087 80.5099 141.042 80.5099 144.445C80.5099 146.881 80.9753 149.138 81.9062 151.216C82.8728 153.294 84.1975 155.085 85.8801 156.589C87.5627 158.13 89.5855 159.33 91.9483 160.189C94.3112 161.049 96.9247 161.479 99.7888 161.479C104.085 161.479 108.202 160.566 112.14 158.739C116.078 156.912 119.873 154.44 123.525 151.323C127.177 148.207 130.685 144.571 134.05 140.415C137.451 136.26 140.709 131.872 143.824 127.25C146.975 122.629 150.018 117.883 152.953 113.011C155.889 108.139 158.735 103.446 161.491 98.9326C164.249 94.3831 166.934 90.1381 169.547 86.1976C172.16 82.2213 174.72 78.8002 177.226 75.9344L179.643 77.3852C178.068 82.1855 176.707 86.4126 175.562 90.0665C174.416 93.6845 173.414 96.8728 172.555 99.6311C171.731 102.389 171.015 104.772 170.407 106.778C169.834 108.784 169.333 110.575 168.903 112.151C168.473 113.727 168.079 115.16 167.721 116.45C167.399 117.704 167.059 118.958 166.701 120.211C166.379 121.465 166.002 122.791 165.573 124.188C165.143 125.585 164.624 127.215 164.016 129.077C163.407 130.904 162.691 133.036 161.868 135.472C161.045 137.872 160.042 140.72 158.86 144.015C161.868 139.466 164.946 134.988 168.097 130.582C171.283 126.176 174.452 121.913 177.602 117.793C180.753 113.674 183.831 109.733 186.839 105.972C189.882 102.21 192.747 98.7177 195.431 95.4936C198.152 92.2696 200.64 89.35 202.896 86.735C205.187 84.0841 207.174 81.8273 208.857 79.9645C210.539 78.1017 211.846 76.6509 212.777 75.612C213.743 74.5732 214.244 74.0358 214.28 74L216.536 75.6658C214.424 80.8959 212.329 86.1439 210.252 91.4098C208.176 96.6399 206.171 101.745 204.238 106.724C202.341 111.703 200.569 116.504 198.922 121.125C197.275 125.746 195.843 130.08 194.626 134.128C193.408 138.141 192.442 141.812 191.726 145.144C191.045 148.44 190.705 151.27 190.705 153.634C190.705 156.428 191.028 158.953 191.673 161.21C192.352 163.467 193.319 165.384 194.572 166.96C195.825 168.536 197.364 169.736 199.191 170.56C201.052 171.42 203.147 171.85 205.473 171.85C207.228 171.85 208.928 171.653 210.575 171.259C212.258 170.864 213.743 170.435 215.032 169.969C216.321 169.503 217.359 169.074 218.147 168.68C218.935 168.285 219.346 168.088 219.382 168.088L220.778 170.506Z" fill="url(#paint4_linear_6_13)"/>
<rect x="83" y="684" width="680" height="38" fill="url(#paint5_linear_6_13)"/>
<rect x="83" y="684" width="680" height="38" fill="url(#paint6_linear_6_13)"/>
<rect x="83" y="684" width="680" height="38" fill="url(#paint7_linear_6_13)"/>
<path d="M316.073 713H321.449V712.28L318.857 712.016H318.449L316.073 712.28V713ZM317.825 713H318.833L323.921 697.16L324.017 696.824H323.513L328.817 713H330.977L325.025 695.384H323.681L317.825 713ZM320.417 707.048H327.881L327.809 706.28H320.489L320.417 707.048ZM325.841 713H332.873V712.28L329.729 712.016H329.033L325.841 712.28V713ZM333.851 713H340.235V712.352L337.427 712.088H336.659L333.851 712.352V713ZM336.011 713H338.147C338.075 711.512 338.051 709.232 338.051 707.528V697.64L338.147 693.896L337.787 693.68L333.971 694.4V695.048L336.083 695.168V707.528C336.083 709.232 336.059 711.512 336.011 713ZM341.706 719.24H348.138V718.592L345.282 718.352H344.37L341.706 718.592V719.24ZM343.746 719.24H345.834C345.786 717.632 345.762 715.304 345.762 713.648V711.368L345.786 711.128V702.68L345.738 702.56L345.594 700.544L345.282 700.328L341.61 701.312V701.912L343.746 702.032C343.794 703.232 343.818 704.504 343.818 706.136V713.648C343.818 715.328 343.794 717.632 343.746 719.24ZM349.53 713.36C352.626 713.36 354.882 710.816 354.882 706.712C354.882 702.752 352.77 700.28 349.866 700.28C348.234 700.28 346.578 701 345.33 702.8H345.066L345.33 703.448C346.746 701.816 347.898 701.384 349.074 701.384C351.258 701.384 352.746 703.112 352.746 706.76C352.746 710.72 351.066 712.232 348.978 712.232C347.658 712.232 346.602 711.824 345.426 710.48L345.09 711.152H345.402C346.602 712.856 348.09 713.36 349.53 713.36ZM357.012 713H362.892V712.352L360.396 712.088H359.628L357.012 712.352V713ZM358.98 713H361.116C361.044 711.848 361.02 709.16 361.02 707.528V703.424L360.996 703.136V697.64L361.068 693.896L360.708 693.68L356.94 694.4V695.048L359.052 695.168V707.528C359.052 709.16 359.028 711.848 358.98 713ZM365.22 713H371.076V712.352L368.556 712.088H367.788L365.22 712.352V713ZM367.14 713H369.3C369.228 711.848 369.204 709.208 369.204 707.528V704.816C369.204 701.552 367.932 700.28 365.82 700.28C364.092 700.28 362.388 701.168 360.708 703.256H360.18L360.636 704.072C362.364 702.128 363.876 701.576 365.004 701.576C366.372 701.576 367.236 702.392 367.236 704.744V707.528C367.236 709.208 367.212 711.848 367.14 713ZM376.407 713.36C378.207 713.36 379.263 712.544 380.751 710.912H381.327L381.111 709.784C379.263 711.632 378.327 712.184 377.271 712.184C375.927 712.184 375.015 711.44 375.015 709.928C375.015 708.632 375.807 707.6 377.823 706.856C378.903 706.448 380.295 706.064 381.567 705.728V705.152C380.271 705.44 378.735 705.848 377.391 706.232C374.223 707.168 373.095 708.392 373.095 710.24C373.095 712.256 374.511 713.36 376.407 713.36ZM382.815 713.336C383.751 713.336 384.471 712.952 384.999 712.136L384.615 711.752C384.207 712.208 383.943 712.352 383.535 712.352C382.863 712.352 382.527 711.92 382.527 710.432V704.504C382.527 701.504 381.183 700.28 378.399 700.28C375.687 700.28 373.887 701.456 373.431 703.424C373.551 703.976 373.935 704.264 374.487 704.264C375.063 704.264 375.495 703.976 375.615 703.112L376.023 701.216L374.967 701.864C376.047 701.264 376.935 701.024 377.871 701.024C379.767 701.024 380.607 701.72 380.607 704.384V710.624C380.703 712.328 381.399 713.336 382.815 713.336ZM392.619 713H396.219V711.992H395.931L392.619 712.28V713ZM395.091 713H397.299C397.227 710.312 397.227 707.576 397.227 704.168V703.712C397.227 700.856 397.227 698.192 397.299 695.528H395.091C395.139 698.216 395.139 700.904 395.139 703.592V704.84C395.139 707.6 395.139 710.336 395.091 713ZM396.219 713H399.579C404.523 713 406.371 710.744 406.371 708.272C406.371 705.776 404.571 703.928 400.179 703.736L400.035 703.952C403.923 703.592 405.459 701.744 405.459 699.68C405.459 697.232 403.659 695.528 399.699 695.528H396.219V696.344H399.099C402.195 696.344 403.395 697.592 403.395 699.704C403.395 702.128 401.835 703.544 398.715 703.544H396.219V704.288H398.955C402.603 704.288 404.235 705.68 404.235 708.272C404.235 710.816 402.459 712.208 399.411 712.208H396.219V713ZM392.619 696.272L395.931 696.536H396.219V695.528H392.619V696.272ZM408.433 713H414.769V712.352L412.057 712.064H411.073L408.433 712.352V713ZM410.401 713H412.537C412.489 711.848 412.465 709.16 412.465 707.528V703.928L412.297 700.544L411.985 700.328L408.289 701.312V701.912L410.401 702.032C410.473 703.232 410.497 704.432 410.497 706.064V707.528C410.497 709.16 410.473 711.848 410.401 713ZM412.441 705.368C413.281 703.016 414.409 701.792 416.089 701.312L414.985 701.288L415.537 701.816C416.089 702.392 416.521 702.704 417.121 702.704C417.985 702.704 418.369 702.2 418.369 701.36C418.153 700.664 417.385 700.28 416.449 700.28C414.769 700.28 413.089 701.768 412.345 704.12H411.913L412.441 705.368ZM422.743 713.36C424.543 713.36 425.599 712.544 427.087 710.912H427.663L427.447 709.784C425.599 711.632 424.663 712.184 423.607 712.184C422.263 712.184 421.351 711.44 421.351 709.928C421.351 708.632 422.143 707.6 424.159 706.856C425.239 706.448 426.631 706.064 427.903 705.728V705.152C426.607 705.44 425.071 705.848 423.727 706.232C420.559 707.168 419.431 708.392 419.431 710.24C419.431 712.256 420.847 713.36 422.743 713.36ZM429.151 713.336C430.087 713.336 430.807 712.952 431.335 712.136L430.951 711.752C430.543 712.208 430.279 712.352 429.871 712.352C429.199 712.352 428.863 711.92 428.863 710.432V704.504C428.863 701.504 427.519 700.28 424.735 700.28C422.023 700.28 420.223 701.456 419.767 703.424C419.887 703.976 420.271 704.264 420.823 704.264C421.399 704.264 421.831 703.976 421.951 703.112L422.359 701.216L421.303 701.864C422.383 701.264 423.271 701.024 424.207 701.024C426.103 701.024 426.943 701.72 426.943 704.384V710.624C427.039 712.328 427.735 713.336 429.151 713.336ZM435.262 701.528H439.702V700.64H435.262V701.528ZM437.206 713.36C438.478 713.36 439.414 712.928 440.062 712.136L439.726 711.704C439.078 712.112 438.622 712.304 437.902 712.304C436.846 712.304 436.27 711.68 436.27 710.192V701L436.366 696.872H435.022L434.326 700.904L434.782 700.568L431.902 700.784V701.528H434.278V708.032C434.278 708.92 434.254 709.424 434.254 710.192C434.254 712.328 435.19 713.36 437.206 713.36ZM447.627 713.36C449.787 713.36 451.371 712.376 452.427 710.744L452.043 710.408C451.059 711.56 449.835 712.16 448.155 712.16C445.491 712.16 443.571 710.456 443.571 706.568C443.571 703.088 445.251 701.048 447.363 701.048C449.331 701.048 450.483 702.512 450.483 704.552C450.483 705.536 450.243 705.944 449.403 705.944H442.419V706.712H452.235C452.331 706.328 452.379 705.848 452.379 705.248C452.379 702.44 450.531 700.28 447.411 700.28C444.243 700.28 441.507 702.8 441.507 706.856C441.507 711.176 444.051 713.36 447.627 713.36ZM460.581 713H466.461V712.28L463.725 711.992H463.245L460.581 712.28V713ZM460.629 696.272L463.701 696.536H463.917V695.528H460.629V696.272ZM462.981 713H463.941V703.712L463.773 695.528H463.029L462.981 713ZM470.205 713H470.997L477.381 696.944L477.645 696.32H477.957V695.528H477.021L471.045 710.528L470.901 710.84H471.405L465.213 695.528H463.245V696.32H463.389L470.205 713ZM474.669 713H481.797V712.28L478.437 711.992H477.933L474.669 712.28V713ZM477.069 713H479.301C479.229 710.36 479.229 707.648 479.229 704.936V703.616C479.229 700.904 479.229 698.192 479.301 695.528H477.237L477.141 705.2C477.117 707.648 477.141 710.336 477.069 713ZM478.173 696.536H478.437L481.725 696.272V695.528H478.173V696.536ZM488.502 713.36C490.494 713.36 492.102 712.208 493.326 710.528H493.974L493.398 709.616C492.27 711.128 490.854 712.016 489.366 712.016C487.806 712.016 486.942 711.128 486.942 708.56V703.88L487.062 700.736L486.798 700.448L483.054 700.832V701.456L485.55 701.816L485.022 701.408L484.974 708.56C484.95 712.112 486.222 713.36 488.502 713.36ZM493.206 713.24L496.902 713.024V712.352L495.078 712.16V703.88L495.174 700.736L494.934 700.448L491.214 700.856V701.48L493.158 701.696L493.11 710.24V710.264L493.206 713.24ZM503.292 713.36C506.532 713.36 508.212 711.752 508.212 709.664C508.212 707.984 507.276 706.88 504.852 706.04L503.652 705.608C501.9 705.032 501.18 704.384 501.18 703.208C501.18 701.96 502.116 701.048 503.964 701.048C504.948 701.048 505.788 701.336 506.772 702.032V701.24L506.028 701.12L506.58 703.904H507.54L507.636 701.336C506.436 700.616 505.38 700.28 503.964 700.28C501.06 700.28 499.452 701.816 499.452 703.832C499.452 705.632 500.676 706.688 502.62 707.36L503.868 707.816C505.836 708.44 506.436 709.136 506.436 710.288C506.436 711.656 505.356 712.592 503.22 712.592C501.828 712.592 500.916 712.256 500.004 711.656V712.52L500.892 712.568L500.316 709.568H499.284V712.4C500.58 713.024 501.732 713.36 503.292 713.36ZM510.341 713H516.269V712.352L513.725 712.088H512.981L510.341 712.352V713ZM512.333 713H514.445C514.397 711.848 514.373 709.16 514.373 707.528V703.88L514.421 700.544L514.133 700.328L510.197 701.288V701.912L512.333 702.008C512.381 703.208 512.429 704.456 512.429 706.088V707.528C512.429 709.16 512.381 711.848 512.333 713ZM513.197 697.28C513.965 697.28 514.613 696.752 514.613 695.936C514.613 695.168 513.965 694.592 513.197 694.592C512.429 694.592 511.829 695.168 511.829 695.936C511.829 696.752 512.429 697.28 513.197 697.28ZM524.381 713.36C526.685 713.36 528.125 712.424 529.181 710.768L528.797 710.456C527.741 711.608 526.493 712.16 525.077 712.16C522.365 712.16 520.493 710.192 520.493 706.736C520.493 703.208 522.365 701.048 524.813 701.048C525.725 701.048 526.541 701.288 527.525 701.936L526.325 700.976L526.925 703.088C527.069 703.928 527.453 704.264 528.125 704.264C528.653 704.264 528.989 704 529.157 703.424C528.605 701.528 526.853 700.28 524.693 700.28C521.405 700.28 518.429 702.704 518.429 706.976C518.429 710.984 520.877 713.36 524.381 713.36Z" fill="white"/>
<defs>
<linearGradient id="paint0_linear_6_13" x1="437.233" y1="300.797" x2="171.103" y2="550.907" gradientUnits="userSpaceOnUse">
<stop stop-color="#AD2525"/>
<stop offset="1" stop-color="#5035B9" stop-opacity="0"/>
</linearGradient>
<linearGradient id="paint1_linear_6_13" x1="494.586" y1="468.281" x2="431.767" y2="558.141" gradientUnits="userSpaceOnUse">
<stop stop-color="#AD2525"/>
<stop offset="1" stop-color="#5035B9" stop-opacity="0"/>
</linearGradient>
<linearGradient id="paint2_linear_6_13" x1="322.138" y1="508.537" x2="259.319" y2="598.397" gradientUnits="userSpaceOnUse">
<stop stop-color="#AD2525"/>
<stop offset="1" stop-color="#5035B9" stop-opacity="0"/>
</linearGradient>
<linearGradient id="paint3_linear_6_13" x1="105.28" y1="80.0496" x2="35.8096" y2="144.665" gradientUnits="userSpaceOnUse">
<stop stop-color="#FF0000"/>
<stop offset="1" stop-opacity="0"/>
<stop offset="1" stop-opacity="0"/>
</linearGradient>
<linearGradient id="paint4_linear_6_13" x1="147.61" y1="74" x2="-33.1112" y2="189.314" gradientUnits="userSpaceOnUse">
<stop stop-color="#FF0000"/>
<stop offset="1" stop-opacity="0"/>
<stop offset="1" stop-opacity="0"/>
</linearGradient>
<linearGradient id="paint5_linear_6_13" x1="83" y1="702.345" x2="763" y2="702.345" gradientUnits="userSpaceOnUse">
<stop offset="0.0677083" stop-color="#CCFF00" stop-opacity="0"/>
<stop offset="0.145833" stop-color="#00FF19" stop-opacity="0.05"/>
<stop offset="0.494917" stop-color="#0066FF" stop-opacity="0.38"/>
<stop offset="0.807292" stop-color="#FF0000" stop-opacity="0.28"/>
<stop offset="0.901042" stop-color="#FF0000" stop-opacity="0"/>
</linearGradient>
<linearGradient id="paint6_linear_6_13" x1="83" y1="702.345" x2="763" y2="702.345" gradientUnits="userSpaceOnUse">
<stop offset="0.0677083" stop-color="#CCFF00" stop-opacity="0"/>
<stop offset="0.145833" stop-color="#00FF19" stop-opacity="0.05"/>
<stop offset="0.494917" stop-color="#0066FF" stop-opacity="0.38"/>
<stop offset="0.807292" stop-color="#FF0000" stop-opacity="0.28"/>
<stop offset="0.901042" stop-color="#FF0000" stop-opacity="0"/>
</linearGradient>
<linearGradient id="paint7_linear_6_13" x1="83" y1="702.345" x2="763" y2="702.345" gradientUnits="userSpaceOnUse">
<stop offset="0.078025" stop-color="white" stop-opacity="0"/>
<stop offset="0.078125" stop-color="white" stop-opacity="0.01"/>
<stop offset="0.494917" stop-color="white" stop-opacity="0.25"/>
<stop offset="0.927083" stop-color="white" stop-opacity="0.01"/>
<stop offset="0.927183" stop-color="white" stop-opacity="0"/>
</linearGradient>
</defs>
</svg>
