<svg width="45" height="67" viewBox="0 0 45 67" fill="none" xmlns="http://www.w3.org/2000/svg">
<g filter="url(#filter0_d_2_12)">
<path d="M22.5844 28.1376C22.5844 45.397 22.5807 46.2751 22.522 46.2567C22.4853 46.2456 22.2286 46.1423 21.9498 46.0279C20.6918 45.5151 19.5731 45.3896 17.9996 45.5889C16.6425 45.7586 15.146 46.3784 13.6165 47.3967C12.4538 48.1678 11.5442 49.0533 10.9133 50.0273C10.2861 50.994 10 51.8758 10 52.8424C10 53.5619 10.1247 54.0895 10.4328 54.6835C11.0893 55.9416 12.2227 56.7349 13.6752 56.9525C14.2437 57.0337 15.3807 57.0079 15.9639 56.8972C18.2967 56.4545 20.5744 55.1853 22.0782 53.4844C22.8998 52.5547 23.6957 51.0051 23.9818 49.7728C24.0552 49.4629 24.0588 49.2599 24.0882 36.1216C24.1028 28.7869 24.1175 22.7804 24.1212 22.773C24.1359 22.7435 24.4036 22.7767 24.6567 22.8358C25.8561 23.1272 27.6863 24.0016 29.0948 24.9572C30.6316 25.9977 31.4899 26.9938 32.3408 28.7168C33.6429 31.3474 34.1894 34.4872 33.7676 36.9296C33.5072 38.446 33.0964 39.6783 31.4825 43.8216C31.1891 44.578 30.947 45.2052 30.947 45.2162C30.947 45.29 31.0791 45.2052 31.2331 45.0318C32.2565 43.8733 34.1711 38.8076 34.7763 35.6604C34.989 34.5536 35 34.4097 35 33.1331C34.9963 31.8529 34.967 31.5061 34.7763 30.5505C34.2151 27.7354 32.6159 25.0384 29.2965 21.3083C27.1398 18.8843 26.3439 17.8992 25.658 16.7961C25.0088 15.7519 24.6273 14.7705 24.3449 13.4128C24.1359 12.3908 24.0882 11.9481 24.0882 10.9298V10H23.3363H22.5844V28.1376Z" fill="white"/>
</g>
<defs>
<filter id="filter0_d_2_12" x="0" y="0" width="45" height="67" filterUnits="userSpaceOnUse" color-interpolation-filters="sRGB">
<feFlood flood-opacity="0" result="BackgroundImageFix"/>
<feColorMatrix in="SourceAlpha" type="matrix" values="0 0 0 0 0 0 0 0 0 0 0 0 0 0 0 0 0 0 127 0" result="hardAlpha"/>
<feOffset/>
<feGaussianBlur stdDeviation="5"/>
<feComposite in2="hardAlpha" operator="out"/>
<feColorMatrix type="matrix" values="0 0 0 0 1 0 0 0 0 1 0 0 0 0 1 0 0 0 1 0"/>
<feBlend mode="normal" in2="BackgroundImageFix" result="effect1_dropShadow_2_12"/>
<feBlend mode="normal" in="SourceGraphic" in2="effect1_dropShadow_2_12" result="shape"/>
</filter>
</defs>
</svg>
